<svg viewBox="0 0 300 300" xmlns="http://www.w3.org/2000/svg"><defs><path id="a" d="M82.933 164.784h196.875v69.231H82.933z"/></defs><path d="M94.77 152.107q-4.797 0-8.03-3.234-3.235-3.234-3.235-8.074 0-4.752 3.234-8.008 3.234-3.234 8.03-3.234 4.818 0 8.272 3.014l-2.992 3.278q-2.31-1.804-5.28-1.804-3.036.022-4.906 1.914-1.848 1.87-1.848 4.796 0 3.146 1.87 4.994 1.87 1.848 4.906 1.848 2.442 0 3.74-.946v-3.872l-2.992.022v-4.224h7.502v10.538q-3.432 2.992-8.272 2.992zm16.345-15.048v1.672q1.628-1.65 3.938-1.65.726 0 1.386.11l-.66 4.158q-.726-.66-2.09-.704-1.54.11-2.574 2.222v9.24h-4.202v-14.586Zm14.894 15.202q-3.278 0-5.478-2.2-2.178-2.2-2.178-5.456 0-3.278 2.178-5.478 2.2-2.2 5.478-2.2 3.278 0 5.478 2.2 2.2 2.2 2.2 5.478 0 3.278-2.2 5.456-2.2 2.2-5.478 2.2zm0-3.63q1.694 0 2.772-1.166 1.078-1.144 1.078-2.86t-1.078-2.86q-1.078-1.166-2.794-1.166-1.694 0-2.772 1.166-1.056 1.144-1.056 2.86t1.056 2.86q1.078 1.166 2.794 1.166zm19.602-1.848v-9.724h4.202v15.048h-4.202v-1.364q-1.518 1.364-3.608 1.364-2.86 0-4.356-1.738-1.518-1.738-1.518-3.982v-9.328h4.224v8.272q0 1.496.748 2.332.748.836 2.266.88 1.32-.088 2.244-1.76zm11.99 11.66-4.202-.022v-20.9l4.202-.462v1.21q1.694-1.21 3.322-1.21 3.454 0 5.478 2.266 2.046 2.244 2.046 5.258t-2.046 5.258q-2.024 2.266-5.478 2.266-2.266-.154-3.322-1.232zm0-15.224v2.442q.308 2.53 3.168 2.97 3.608-.286 4.07-3.74-.154-4.224-4.07-4.378-2.86.462-3.168 2.706zm20.636 9.042q-3.278 0-5.456-2.2-2.2-2.2-2.2-5.456 0-3.278 2.2-5.478 2.178-2.2 5.456-2.2 3.278 0 5.478 2.2 2.2 2.2 2.2 5.478 0 3.278-2.2 5.456-2.2 2.2-5.478 2.2zm0-3.63q1.716 0 2.772-1.166 1.078-1.144 1.078-2.86t-1.078-2.86q-1.056-1.166-2.794-1.166-1.694 0-2.772 1.166-1.056 1.144-1.056 2.86t1.056 2.86q1.078 1.166 2.794 1.166zm14.696-6.138v9.614h-4.224v-14.586l4.224-.462v1.342q1.408-1.32 3.608-1.32 2.838 0 4.356 1.716 1.65-1.716 4.95-1.716 2.86 0 4.378 1.716 1.496 1.738 1.496 4.004v9.306h-4.202v-8.272q0-1.496-.682-2.332-.682-.814-2.2-.858-1.254.088-2.156 1.65-.088.462-.088.946v8.866h-4.202v-8.272q0-1.496-.682-2.332-.682-.814-2.2-.858-1.386.088-2.376 1.848Zm24.442-1.056-1.65-2.552q2.86-1.804 6.622-1.804 2.706 0 4.268 1.496 1.584 1.518 1.584 4.51v9.02h-4.202v-1.188q-1.848 1.188-3.322 1.188-2.992 0-4.51-1.276-1.496-1.276-1.496-3.52 0-2.112 1.43-3.762 1.408-1.65 4.576-1.65 1.474 0 3.322.902v-.462q-.044-1.65-2.42-1.804-2.706 0-4.202.902zm6.622 6.16v-1.694q-.594-1.166-2.86-1.166-2.706.308-2.86 2.112.154 1.782 2.86 1.936 2.266 0 2.86-1.188zm12.188-5.038v9.548h-4.224v-14.586l4.224-.462v1.364q1.518-1.342 3.608-1.342 2.86 0 4.356 1.716 1.496 1.738 1.496 4.004v9.306h-4.202v-8.272q0-1.496-.748-2.332-.77-.814-2.288-.858-1.298.088-2.222 1.914Zm17.204 9.548h-4.202v-15.048h4.202zm-4.356-18.634q0 .902.594 1.496.616.594 1.672.594 1.034 0 1.65-.594.594-.594.594-1.496t-.594-1.518q-.616-.616-1.694-.616-1.012 0-1.628.616-.594.616-.594 1.518Zm9.966 7.964-1.65-2.552q2.86-1.804 6.622-1.804 2.706 0 4.29 1.496 1.562 1.518 1.562 4.51v9.02h-4.202v-1.188q-1.826 1.188-3.3 1.188-3.014 0-4.51-1.276-1.518-1.276-1.518-3.52 0-2.112 1.43-3.762 1.408-1.65 4.598-1.65 1.452 0 3.3.902v-.462q-.022-1.65-2.398-1.804-2.706 0-4.224.902zm6.622 6.16v-1.694q-.594-1.166-2.86-1.166-2.706.308-2.86 2.112.154 1.782 2.86 1.936 2.266 0 2.86-1.188z" fill="#fd2d01"/><svg viewBox="-205 207 100 100" fill="#ffd7d7" transform="matrix(.17276 0 0 .17276 27.75 124.086)"><switch><g><path d="M-155 298.8c11.2 0 21.7-4.3 29.6-12.2 7.9-7.9 12.2-18.4 12.2-29.6 0-11.2-4.3-21.7-12.2-29.6-7.9-7.9-18.4-12.2-29.6-12.2-11.2 0-21.7 4.3-29.6 12.2-7.9 7.9-12.2 18.4-12.2 29.6 0 11.2 4.3 21.7 12.2 29.6 7.9 7.9 18.4 12.2 29.6 12.2zm2.4-7.1c-.8.1-1.6.1-2.4.1-1.1 0-2.2-.1-3.3-.2-3.6-5.6-6.3-11.6-7.9-17.9h17.7c.6 1.5 1.7 2.9 3 3.8-1.7 5-4.1 9.7-7.1 14.2zm9.5-2c1.9-3.5 3.4-7 4.6-10.7 2.9-.6 5.2-2.6 6.3-5.3h7.7c-4 7.3-10.7 13-18.6 16zm22.8-32.7c0 3.3-.5 6.5-1.3 9.6h-10.8c-.6-1.3-1.6-2.5-2.8-3.4.2-2.2.3-4.4.3-6.6 0-3.1-.2-6.2-.6-9.2h13.8c1 3 1.4 6.3 1.4 9.6zm-4.2-16.7h-12.2c-1.3-5.5-3.2-10.7-5.8-15.7 7.6 2.9 14 8.6 18 15.7zm-17.4 16.3c0 1.7-.1 3.4-.2 5.1-2.8.6-5.1 2.4-6.2 4.9h-19.3c-.4-3-.7-6.1-.7-9.1 0-1.9.1-3.8.3-5.7 2.6-.5 4.7-2.2 6-4.4h19.5c.4 3 .6 6.1.6 9.2zm-15.7-34.2c.9-.1 1.8-.1 2.6-.1 1 0 2 0 3 .1 3.6 5.6 6.3 11.6 7.9 17.9h-17.4c-.6-1.7-1.7-3.2-3.1-4.3 1.8-4.8 4.1-9.3 7-13.6zm-9.5 2c-1.7 3.2-3.2 6.6-4.4 10-3.1.6-5.6 2.9-6.6 5.8h-7.3c3.9-7.1 10.4-12.8 18.3-15.8zm-22.6 32.6c0-3.3.5-6.6 1.4-9.6h10.9c.6 1.1 1.5 2.1 2.5 2.9-.2 2.4-.4 4.8-.4 7.2 0 3.1.2 6.1.6 9.1h-13.6c-1-3.1-1.4-6.3-1.4-9.6zm16.2 16.6c1.3 5.4 3.2 10.7 5.8 15.7-7.6-3-13.9-8.6-17.8-15.7z"/></g></switch></svg><text xml:space="preserve" style="font-style:normal;font-size:17.5px;line-height:125%;font-family:sans-serif;letter-spacing:2.79px;word-spacing:0;white-space:pre;shape-inside:url(#a);fill:#4e5166;fill-opacity:1;stroke:none;stroke-width:1px;stroke-linecap:butt;stroke-linejoin:miter;stroke-opacity:1" transform="translate(0 -10)"><tspan x="82.934" y="181.058"><tspan style="font-weight:300;font-family:Lato;-inkscape-font-specification:'Lato Light'">SOCIAL NETWORK</tspan></tspan></text></svg>